<svg xmlns="http://www.w3.org/2000/svg" fill="none" overflow="visible" preserveAspectRatio="none" style="display:block" viewBox="0 0 102.461 127.735"><g stroke="var(--stroke-0, #13294B)"><g fill="var(--fill-0, #DADFE7)" stroke-width="1.181"><path d="M86.196 58.706 94.7 65.04s-5.708 6.086-9.047 3.8c-3.528-2.414.542-10.134.542-10.134Z"/><path d="m84.202 61.648 8.193 6.732s-5.991 5.808-9.218 3.365c-3.409-2.58 1.024-10.097 1.024-10.097Z"/><path d="m81.956 64.592 7.433 7.564s-6.574 5.138-9.523 2.367c-3.116-2.927 2.09-9.931 2.09-9.931Z"/><path d="m79.495 66.922 5.903 8.81s-7.412 3.831-9.797.562c-2.52-3.454 3.894-9.372 3.894-9.372Z"/><path d="m76.565 68.692 3.022 10.165s-8.216 1.458-9.522-2.372c-1.38-4.046 6.5-7.793 6.5-7.793Z"/><path d="m72.018 69.868 2.301 10.351s-8.297.88-9.332-3.032c-1.094-4.133 7.03-7.32 7.03-7.32Z"/></g><g fill="var(--fill-0, #DADFE7)" stroke-width="1.181"><path d="M16.455 58.707 7.949 65.04s5.708 6.086 9.047 3.801c3.528-2.415-.541-10.134-.541-10.134Z"/><path d="m18.449 61.65-8.194 6.732s5.992 5.808 9.218 3.365c3.409-2.58-1.024-10.097-1.024-10.097Z"/><path d="m20.692 64.594-7.433 7.564s6.574 5.138 9.523 2.367c3.116-2.927-2.09-9.931-2.09-9.931Z"/><path d="m23.153 66.926-5.902 8.81s7.411 3.831 9.796.562c2.52-3.454-3.894-9.372-3.894-9.372Z"/><path d="m26.085 68.694-3.021 10.165s8.215 1.458 9.522-2.371c1.38-4.047-6.5-7.794-6.5-7.794Z"/><path d="m30.63 69.868-2.3 10.351s8.297.88 9.332-3.032c1.094-4.133-7.03-7.32-7.03-7.32Z"/></g><path fill="var(--fill-0, #EDEFF3)" stroke-width="1.476" d="M44.69 65.293h7.104c1.8 0 4.14.073 6.412.168 4.205.175 7.626 3.42 8.123 7.62.4 3.37.888 7.418 1.375 11.298.7 5.57 1.4 11.519 1.838 15.302a2.794 2.794 0 0 1-2.781 3.114H36.757a2.806 2.806 0 0 1-2.797-3.023c.302-3.945.777-10.242 1.138-15.434.248-3.567.644-7.755 1.012-11.354.448-4.385 4.16-7.691 8.58-7.691Z"/><path fill="var(--fill-0, #EDEFF3)" stroke-width="1.181" d="m13.937 60.134-3.705 2.77-4.352.807-3.646-1.563-1.49-4.092L3.4 56.875l.917 3.259 2.627.875 2.842-.875 1.752-1.46.72-2.98-1.18-1.772-2.953-1.182.885-2.657 3.901 1.383 2.344 3.647zm74.587.102 3.704 2.77 4.353.807 3.646-1.563 1.49-4.093-2.657-1.18-.917 3.259-2.627.874-2.843-.874-1.752-1.46-.72-2.981 1.18-1.772 2.954-1.18-.885-2.658-3.902 1.382-2.344 3.648z"/><path fill="var(--fill-0, #EDEFF3)" stroke-width="1.476" d="M51.836 26.315c8.079 0 14.298.45 18.41.884 3.28.346 5.849 2.746 6.344 5.99a96 96 0 0 1 1.077 14.382c0 5.95-.553 10.8-1.102 14.153-.486 2.96-2.772 5.186-5.752 5.66-4.269.68-10.983 1.452-19.451 1.452-8.545 0-15.303-.786-19.566-1.47-2.924-.469-5.186-2.624-5.718-5.516-.624-3.397-1.268-8.338-1.268-14.279a87 87 0 0 1 1.217-14.39c.549-3.232 3.167-5.6 6.458-5.938 4.359-.447 10.998-.928 19.351-.928Z"/><path stroke-width="1.181" d="M43.265 58.65c3.986 5.512 12.18 5.512 15.946 0"/><path fill="var(--fill-0, white)" stroke-width="1.181" d="M41.79 35.614c1.371 0 2.686.834 3.684 2.332.996 1.493 1.63 3.59 1.63 5.936s-.634 4.443-1.63 5.937c-.998 1.497-2.313 2.331-3.684 2.332-1.372 0-2.688-.835-3.686-2.333-.995-1.493-1.63-3.59-1.63-5.936s.635-4.443 1.63-5.936c.998-1.498 2.314-2.332 3.686-2.332Zm19.486 0c1.371 0 2.686.834 3.684 2.332.996 1.493 1.63 3.59 1.63 5.936s-.635 4.443-1.63 5.937c-.998 1.497-2.313 2.331-3.684 2.332-1.373 0-2.688-.835-3.686-2.333-.996-1.493-1.63-3.59-1.63-5.936s.634-4.443 1.63-5.936c.998-1.498 2.314-2.332 3.685-2.332Z"/><path fill="var(--fill-0, white)" stroke-width="1.772" d="M65.731 81.596q.02-.003.04.011c1.48 1.024 5.095 3.823 6.761 5.16a2.12 2.12 0 0 0 2.615.028c1.059-.818 2.259-1.735 3.288-2.596.118-.1.268-.1.366-.038a55 55 0 0 1 2.51 1.679 2.06 2.06 0 0 0 2.374.008 96 96 0 0 0 2.507-1.846.28.28 0 0 1 .455.219c.005 9.246-.845 16.068-5.763 24.654-9.803 17.114-29.805 23.086-46.896 13.189-13.775-8.721-18.832-22.69-18.462-38.34a.24.24 0 0 1 .374-.204c2.125 1.313 4.571 2.937 6.576 4.033.57.311 1.276.338 1.879.011.834-.453 1.694-1.047 2.524-1.631.845-.596 1.663-1.181 2.468-1.671.06-.038.16-.046.256.015l6.907 4.389c.58.369 1.338.441 1.993.1 1.47-.764 3.466-2.094 4.638-2.827v.001l6.629-4.1a.39.39 0 0 1 .435.04c1.595 1.223 4.884 3.488 6.559 4.617.726.49 1.676.46 2.373-.055l6.502-4.807a.2.2 0 0 1 .092-.04ZM54.788.91c3.06-.071 6.402.814 9.49 2.176 3.104 1.37 6.015 3.25 8.201 5.221 9.17 8.271 13.349 19.892 14.362 31.731.107 1.26-1.315 2.048-2.327 1.296-1.737-1.293-3.563-2.756-5.27-4.05-1.237.618-2.575 1.392-3.928 2.166-1.398.8-2.817 1.602-4.085 2.175a1.47 1.47 0 0 1-1.569-.239 278 278 0 0 0-7.158-6.074c-2.31 1.097-4.837 2.204-7.12 3.274l-.011.005-.012.005-.046.023q-.045.022-.11.06c-.088.048-.19.108-.293.168-.54.315-1.22.258-1.698-.153-1.962-1.682-6.898-5.785-8.82-7.11-1.165.364-2.742 1.022-3.907 1.472l-.004.001-6.48 2.466a1.49 1.49 0 0 1-1.58-.34c-.78-.778-1.858-1.728-2.986-2.706-1.06-.92-2.164-1.865-3.058-2.676-.85.353-1.687.742-2.537 1.143-.902.425-1.825.864-2.764 1.264-1.19.509-2.35-.65-1.931-1.826l.323-.888a56 56 0 0 1 2.638-6.054C28.262 11.387 40.222.318 54.788.91Z"/></g></svg>